<?xml version="1.0" standalone="no"?>
<!DOCTYPE svg PUBLIC "-//W3C//DTD SVG 20010904//EN"
 "http://www.w3.org/TR/2001/REC-SVG-20010904/DTD/svg10.dtd">
<svg version="1.0" xmlns="http://www.w3.org/2000/svg"
 width="260.000000pt" height="260.000000pt" viewBox="0 0 260.000000 260.000000"
 preserveAspectRatio="xMidYMid meet">
<metadata>
Created by potrace 1.11, written by Peter Selinger 2001-2013
</metadata>
<g transform="translate(0.000000,260.000000) scale(0.100000,-0.100000)"
fill="#000000" stroke="none">
<path d="M1138 2252 c-9 -20 -32 -72 -52 -115 -20 -42 -36 -79 -36 -82 0 -2
-18 -43 -41 -92 -105 -228 -139 -303 -139 -308 0 -2 -22 -51 -50 -110 -27 -59
-50 -108 -50 -110 0 -4 -32 -75 -90 -200 -10 -22 -30 -66 -44 -97 -66 -146
-79 -175 -91 -203 -8 -16 -27 -59 -43 -95 -16 -36 -53 -117 -81 -180 -65 -143
-97 -214 -122 -265 -10 -22 -19 -52 -19 -67 l0 -28 159 0 160 0 30 65 c17 36
31 67 31 69 0 3 17 42 39 88 21 46 45 98 52 116 8 19 30 66 49 105 l35 72 347
5 c212 3 351 9 357 15 6 6 -6 43 -35 103 l-43 92 -254 0 c-192 0 -257 3 -265
13 -7 8 2 37 30 97 62 134 66 142 88 195 12 28 32 73 45 100 23 50 72 159 102
225 34 76 78 178 86 203 9 23 23 14 41 -26 8 -18 26 -59 41 -92 14 -33 33 -76
42 -95 17 -39 31 -70 63 -145 12 -27 33 -74 46 -102 47 -103 72 -159 114 -258
24 -55 58 -134 77 -175 19 -41 38 -84 43 -95 5 -11 24 -54 43 -95 19 -41 74
-166 122 -277 l88 -203 179 0 c145 0 178 3 178 14 0 8 -7 16 -15 20 -8 3 -15
12 -15 20 0 8 -18 54 -41 103 -22 48 -54 116 -70 151 -16 34 -29 64 -29 66 0
3 -18 44 -41 93 -64 139 -67 145 -93 203 -68 151 -140 311 -163 360 -14 30
-31 69 -38 85 -8 17 -30 65 -49 108 -20 42 -36 80 -36 82 0 3 -16 40 -36 82
-46 97 -45 94 -174 383 -29 63 -63 139 -77 168 l-24 52 -157 0 -157 -1 -17
-37z"/>
</g>
</svg>
